<svg xmlns="http://www.w3.org/2000/svg" style="display: none;">
  <symbol id="icon-circle" viewBox="0 0 24 24" fill="none" stroke="currentColor" stroke-width="2" stroke-linecap="round" stroke-linejoin="round">
    <circle cx="12" cy="12" r="10"></circle>
  </symbol>
  <symbol id="icon-check-circle" viewBox="0 0 24 24" fill="none" stroke="currentColor" stroke-width="2" stroke-linecap="round" stroke-linejoin="round">
    <path d="M22 11.08V12a10 10 0 1 1-5.93-9.14"></path>
    <polyline points="22 4 12 14.01 9 11.01"></polyline>
  </symbol>
  <symbol id="icon-square" viewBox="0 0 24 24" fill="none" stroke="currentColor" stroke-width="2" stroke-linecap="round" stroke-linejoin="round">
    <rect x="3" y="3" width="18" height="18" rx="2" ry="2"></rect>
  </symbol>
  <symbol id="icon-check-square" viewBox="0 0 24 24" fill="none" stroke="currentColor" stroke-width="2" stroke-linecap="round" stroke-linejoin="round">
    <polyline points="9 11 12 14 22 4"></polyline>
    <path d="M21 12v7a2 2 0 0 1-2 2H5a2 2 0 0 1-2-2V5a2 2 0 0 1 2-2h11"></path>
  </symbol>
  <symbol id="icon-copy" viewBox="0 0 24 24" fill="none" stroke="currentColor" stroke-width="2" stroke-linecap="round" stroke-linejoin="round">
    <rect x="9" y="9" width="13" height="13" rx="2" ry="2"></rect>
    <path d="M5 15H4a2 2 0 0 1-2-2V4a2 2 0 0 1 2-2h9a2 2 0 0 1 2 2v1"></path>
  </symbol>
</svg>
